<?xml version="1.0" encoding="UTF-8" standalone="no"?>
<!-- Created with Inkscape (http://www.inkscape.org/) -->

<svg
   width="33.901943mm"
   height="8.5019331mm"
   viewBox="0 0 33.901943 8.501933"
   version="1.1"
   id="svg1"
   inkscape:version="1.3.2 (091e20e, 2023-11-25)"
   sodipodi:docname="mindscript-logo-flammarion.svg"
   xmlns:inkscape="http://www.inkscape.org/namespaces/inkscape"
   xmlns:sodipodi="http://sodipodi.sourceforge.net/DTD/sodipodi-0.dtd"
   xmlns="http://www.w3.org/2000/svg"
   xmlns:svg="http://www.w3.org/2000/svg">
  <sodipodi:namedview
     id="namedview1"
     pagecolor="#ffffff"
     bordercolor="#666666"
     borderopacity="1.0"
     inkscape:showpageshadow="2"
     inkscape:pageopacity="0.0"
     inkscape:pagecheckerboard="0"
     inkscape:deskcolor="#d1d1d1"
     inkscape:document-units="mm"
     showguides="true"
     showgrid="true"
     inkscape:zoom="11.429417"
     inkscape:cx="77.563012"
     inkscape:cy="36.047333"
     inkscape:window-width="2490"
     inkscape:window-height="1376"
     inkscape:window-x="0"
     inkscape:window-y="0"
     inkscape:window-maximized="1"
     inkscape:current-layer="layer1">
    <sodipodi:guide
       position="9.2318621,-9.077446"
       orientation="1,0"
       id="guide14"
       inkscape:locked="false" />
    <inkscape:grid
       id="grid14"
       units="px"
       originx="-71.94902"
       originy="-146.03237"
       spacingx="0.26458333"
       spacingy="0.26458334"
       empcolor="#3f3fff"
       empopacity="0.25098039"
       color="#3f3fff"
       opacity="0.1254902"
       empspacing="5"
       dotted="true"
       gridanglex="30"
       gridanglez="30"
       visible="true" />
  </sodipodi:namedview>
  <defs
     id="defs1" />
  <g
     inkscape:label="Layer 1"
     inkscape:groupmode="layer"
     id="layer1"
     transform="translate(-71.949021,-146.03238)">
    <g
       id="g14"
       transform="matrix(0.55008912,0,0,0.55008912,37.18738,72.574658)"
       style="stroke-width:1.81789">
      <g
         id="path5127"
         style="stroke-width:1.81789">
        <path
           style="color:#000000;fill:#453a62;stroke-width:1.81789;stroke-linecap:round;stroke-linejoin:round;-inkscape-stroke:none"
           d="m 77.566487,141.26518 a 6.9450498,6.9450498 0 0 1 -6.94505,6.94505 6.9450498,6.9450498 0 0 1 -6.94505,-6.94505 6.9450498,6.9450498 0 0 1 6.94505,-6.94505 6.9450498,6.9450498 0 0 1 6.94505,6.94505 z"
           id="path1" />
        <path
           style="color:#000000;fill:#ff0000;stroke-width:1.81789;stroke-linecap:round;stroke-linejoin:round;-inkscape-stroke:none"
           d="m 70.621094,134.23242 c -3.883305,0 -7.033203,3.1499 -7.033203,7.0332 0,3.88331 3.149898,7.03321 7.033203,7.03321 3.883305,0 7.033203,-3.1499 7.033203,-7.03321 0,-3.8833 -3.149898,-7.0332 -7.033203,-7.0332 z m 0,0.17578 c 3.787977,0 6.857422,3.06945 6.857422,6.85742 0,3.78798 -3.069445,6.85547 -6.857422,6.85547 -3.787978,0 -6.857422,-3.06749 -6.857422,-6.85547 0,-3.78797 3.069444,-6.85742 6.857422,-6.85742 z"
           id="path2" />
      </g>
      <g
         id="path5253"
         style="stroke-width:1.81789">
        <path
           style="color:#000000;fill:#ffffff;stroke-width:1.81789;stroke-linecap:round;stroke-linejoin:round;-inkscape-stroke:none"
           d="m 67.320762,139.75938 a 0.8385846,0.8385846 0 0 1 -0.838584,0.83859 0.8385846,0.8385846 0 0 1 -0.838585,-0.83859 0.8385846,0.8385846 0 0 1 0.838585,-0.83858 0.8385846,0.8385846 0 0 1 0.838584,0.83858 z"
           id="path3" />
        <path
           style="color:#000000;fill:#000000;stroke-width:1.81789;stroke-linecap:round;stroke-linejoin:round;-inkscape-stroke:none"
           d="m 66.482422,138.79687 c -0.529866,0 -0.962891,0.43303 -0.962891,0.9629 0,0.52986 0.433025,0.96093 0.962891,0.96093 0.529866,0 0.960937,-0.43107 0.960937,-0.96093 0,-0.52987 -0.431071,-0.9629 -0.960937,-0.9629 z m 0,0.24805 c 0.396408,0 0.714844,0.31844 0.714844,0.71485 0,0.3964 -0.318436,0.71484 -0.714844,0.71484 -0.396408,0 -0.714844,-0.31844 -0.714844,-0.71484 0,-0.39641 0.318436,-0.71485 0.714844,-0.71485 z"
           id="path4" />
      </g>
      <g
         id="g14294"
         transform="matrix(0.35277777,0,0,-0.35277777,-19.941416,268.01479)"
         style="fill:#e6e6e6;stroke-width:1.81789">
        <g
           id="path8017"
           style="stroke-width:1.81789">
          <path
             style="color:#000000;stroke-width:1.81789;stroke-linecap:square;stroke-linejoin:round;-inkscape-stroke:none"
             d="m 258.98885,348.94404 -1.83621,1.67627 c 0,0 -0.78348,0.40745 -1.20186,0.54195 -0.39901,0.12827 -0.81882,0.18168 -1.23267,0.24788 -0.48407,0.0775 -0.98101,0.0716 -1.4603,0.17456 -0.51753,0.11119 -1.01275,0.30882 -1.51506,0.47579 -0.77157,0.25647 -1.82497,0.63138 -1.82497,0.63138 0,0 -1.53188,0.1249 -2.09723,0.0429 -1.25917,-0.19863 -2.49112,-0.64853 -3.72384,0.29827 0,0 -0.36706,0.84634 -0.16858,1.19701 0.32208,0.56904 1.17477,0.59529 1.80615,0.7653 0.93822,0.25264 1.95149,0.12056 2.89207,0.36425 0.91305,0.23656 2.62593,1.05411 2.62593,1.05411 0,0 0.61749,1.28698 0.82949,1.96589 0.31346,1.00383 0.52462,2.0435 0.64549,3.08817 0.1151,0.995 0.0937,2.0026 0.0731,3.00402 -0.0228,1.10812 -0.0669,2.21988 -0.21778,3.31792 -0.15631,1.13771 -0.49636,2.2429 -0.70983,3.37128 v 2e-5 c -0.0558,0.29508 -0.19045,0.591 -0.14925,0.88848 0.0388,0.28021 0.15096,0.57954 0.36254,0.76731 0.21117,0.18736 0.52911,0.33526 0.80339,0.26826 0.49148,-0.11996 0.77573,-0.66888 1.05624,-1.0899 0.46709,-0.70105 0.70238,-1.533 0.99749,-2.32201 0.36469,-0.97504 0.98365,-5.25535 0.98365,-5.25535 0,0 0.28828,3.34153 0.26628,3.88462 -0.0294,0.7274 -0.36902,1.40859 -0.56977,2.10836 -0.14532,0.50656 -0.36198,0.99485 -0.45938,1.51278 -0.10179,0.54165 -0.33079,1.13656 -0.12679,1.64855 0.132,0.33128 0.46037,0.58972 0.79312,0.71796 0.20956,0.0808 0.46542,0.0839 0.67374,0 0.22433,-0.0904 0.52299,-0.50289 0.52299,-0.50289 0,0 0.12944,0.41689 0.2955,0.53483 0.25039,0.17783 0.61247,0.23783 0.90821,0.15503 0.60825,-0.17035 1.04303,-0.7439 1.43063,-1.24265 0.6149,-0.79124 1.3499,-2.68612 1.3499,-2.68612 0,0 0.23556,0.19381 0.37938,0.21621 0.26258,0.0409 0.56352,-0.0112 0.77985,-0.16558 0.5096,-0.36358 0.72917,-1.03094 0.96654,-1.61019 0.2631,-0.64202 0.45818,-1.33008 0.48918,-2.02322 0.0411,-0.91787 -0.25784,-1.81953 -0.40575,-2.72633 -0.16429,-1.00725 -0.51897,-1.99415 -0.53497,-3.01458 -0.0166,-1.06077 0.45767,-3.14963 0.45767,-3.14963 0,0 0.76599,-1.12131 1.20287,-1.63957 0.25533,-0.30289 0.69584,-0.74183 1.25745,-1.26693 z"
             id="path5" />
          <path
             style="color:#000000;fill:#000000;stroke-width:1.81789;stroke-linecap:square;stroke-linejoin:round;-inkscape-stroke:none"
             d="m 258.73633,348.66797 -1.79102,1.63476 c -0.0467,0.0236 -0.78156,0.39657 -1.10937,0.50196 -0.35493,0.1141 -0.75589,0.16689 -1.17774,0.23437 -0.44157,0.0707 -0.94431,0.0649 -1.47851,0.17969 -0.55872,0.12004 -1.06642,0.32403 -1.55469,0.48633 -0.75758,0.25182 -1.72921,0.59602 -1.7832,0.61523 -0.0381,0.003 -0.35548,0.0293 -0.77735,0.0488 -0.44621,0.0206 -0.98116,0.0243 -1.18945,-0.006 l 0.004,0.002 c -0.60514,-0.0954 -1.24084,-0.26443 -1.91797,-0.28515 -0.67714,-0.0207 -1.40482,0.12861 -2.0918,0.65625 a 0.3750375,0.3750375 0 0 0 -0.11719,0.14844 c 0,0 -0.10039,0.23195 -0.17578,0.51953 -0.0754,0.28757 -0.18636,0.63564 0.0254,1.00976 0.2297,0.40583 0.63285,0.59599 1.00586,0.70703 0.37301,0.11105 0.74986,0.16109 1.0293,0.23633 1.03536,0.2788 2.05105,0.1462 2.89648,0.36524 0.78082,0.2023 2.28047,0.90887 2.4336,0.98046 0.0721,0.15298 0.57996,1.21951 0.75781,1.78907 0.30578,0.97924 0.51246,1.99618 0.63086,3.01953 0.11117,0.96102 0.0909,1.95154 0.0703,2.95312 -0.0227,1.10334 -0.0673,2.19946 -0.21484,3.27344 -0.15079,1.0975 -0.48836,2.19761 -0.70703,3.35352 -0.0438,0.23183 -0.21342,0.56883 -0.15235,1.00976 0.0473,0.34153 0.17598,0.72067 0.48633,0.9961 0.27766,0.24635 0.67787,0.4646 1.14063,0.35156 0.71512,-0.17455 1.01736,-0.85296 1.27929,-1.2461 0.51078,-0.76661 0.74939,-1.62918 1.03711,-2.39843 0.16804,-0.44928 0.33179,-1.42309 0.49219,-2.32813 2.5e-4,0.004 -2.5e-4,0.01 0,0.0137 0.0237,0.38633 0.0348,0.70974 0.0312,0.79688 -0.0251,0.6204 -0.34081,1.27401 -0.55469,2.01953 -0.13569,0.47299 -0.36059,0.97175 -0.46875,1.54688 -0.0921,0.49029 -0.38216,1.16299 -0.10547,1.85742 0.18634,0.46764 0.59261,0.77042 1.00586,0.92968 0.30216,0.11651 0.63923,0.1229 0.94922,-0.002 0.14937,-0.0602 0.21286,-0.15174 0.29883,-0.23633 0.0486,0.0769 0.0577,0.15046 0.16211,0.22461 0.35707,0.2536 0.80901,0.32785 1.22656,0.21094 0.77405,-0.21679 1.2395,-0.877 1.625,-1.37305 0.35203,-0.45298 0.68579,-1.13173 0.95117,-1.71484 0.16817,-0.36951 0.20945,-0.48412 0.28711,-0.67578 0.0493,0.0201 0.0658,0.0495 0.13672,0.0605 0.35349,0.0551 0.73893,-0.004 1.05664,-0.23047 0.64476,-0.46001 0.86589,-1.21262 1.0957,-1.77344 0.27409,-0.66883 0.48199,-1.39621 0.51563,-2.14844 0.0452,-1.01001 -0.26881,-1.93619 -0.41016,-2.80273 -0.17183,-1.05347 -0.5146,-2.02358 -0.52929,-2.96094 -0.0144,-0.9215 0.42075,-2.91008 0.43945,-2.99609 0.0577,-0.0839 0.74466,-1.08447 1.13281,-1.54493 0.23341,-0.27688 0.66965,-0.71561 1.22656,-1.23632 a 0.3750375,0.3750375 0 0 0 0.002,-0.54688 l -6.61524,-6.22266 a 0.3750375,0.3750375 0 0 0 -0.50976,-0.004 z m 0.25,0.78711 6.08008,5.72265 c -0.39955,0.38288 -0.79104,0.75847 -1.00782,1.01563 -0.46945,0.55691 -1.22461,1.66992 -1.22461,1.66992 a 0.3750375,0.3750375 0 0 0 -0.0566,0.12891 c 0,0 -0.48526,2.05807 -0.46679,3.23828 0.0173,1.1035 0.38231,2.10733 0.53906,3.06836 0.15447,0.94705 0.43932,1.82466 0.40234,2.65039 -0.0284,0.63405 -0.21077,1.28127 -0.46289,1.89648 -0.24492,0.59769 -0.46149,1.18012 -0.83594,1.44727 -0.11494,0.082 -0.33223,0.1283 -0.5039,0.10156 0.0598,0.009 -0.0341,-0.0188 -0.0937,-0.0586 -0.0597,-0.0398 -0.10547,-0.0781 -0.10547,-0.0781 a 0.3750375,0.3750375 0 0 0 -0.58789,0.1543 c 0,0 -0.18166,0.4652 -0.4375,1.02734 -0.25584,0.56214 -0.5965,1.2262 -0.85938,1.56446 -0.3897,0.50145 -0.79388,0.98741 -1.23632,1.11132 -0.17393,0.0487 -0.44614,0.002 -0.58985,-0.0996 0.0495,0.0352 -0.041,-0.0619 -0.084,-0.1582 -0.043,-0.0963 -0.0703,-0.18164 -0.0703,-0.18164 a 0.3750375,0.3750375 0 0 0 -0.66211,-0.10937 c 0,0 -0.0641,0.0892 -0.15235,0.1875 -0.0882,0.0983 -0.22476,0.19464 -0.20703,0.1875 -0.10665,0.0429 -0.28147,0.0431 -0.39844,-0.002 -0.25224,-0.0972 -0.50241,-0.31094 -0.58007,-0.50586 -0.13131,-0.32955 0.037,-0.8484 0.14843,-1.4414 0.0867,-0.46074 0.29623,-0.93839 0.45117,-1.47852 0.18763,-0.65401 0.55026,-1.36091 0.58399,-2.19531 0.007,-0.18441 -0.009,-0.48205 -0.0332,-0.875 -0.0241,-0.39295 -0.059,-0.86368 -0.0937,-1.31641 -0.0695,-0.90545 -0.14063,-1.74218 -0.14063,-1.74218 a 0.3750375,0.3750375 0 0 0 -0.74414,-0.0215 c 0,0 -0.15599,1.067 -0.35547,2.25391 -0.19948,1.1869 -0.46572,2.53975 -0.60937,2.92383 -0.3025,0.80876 -0.53558,1.61061 -0.95899,2.24609 -0.29909,0.4489 -0.5642,0.86822 -0.83203,0.93359 -0.0858,0.021 -0.32212,-0.0552 -0.4668,-0.18359 -0.1128,-0.10011 -0.20797,-0.32017 -0.23828,-0.53906 -0.0213,-0.15403 0.0787,-0.40925 0.14649,-0.76758 0.20826,-1.10085 0.5491,-2.2127 0.71093,-3.39063 0.15419,-1.12209 0.19976,-2.24647 0.22266,-3.35937 0.0206,-1.00125 0.0429,-2.02766 -0.0762,-3.05664 -0.12334,-1.06599 -0.33902,-2.12784 -0.66016,-3.15625 -0.23356,-0.74796 -0.84961,-2.01563 -0.84961,-2.01563 a 0.3750375,0.3750375 0 0 0 -0.17578,-0.17578 c 0,0 -1.68747,-0.81946 -2.69336,-1.08008 -1.03572,-0.26834 -2.04759,-0.1368 -2.88867,-0.36328 -0.35194,-0.0948 -0.71806,-0.14363 -1.00976,-0.23047 -0.2917,-0.0868 -0.47598,-0.1942 -0.56836,-0.35742 0.0133,0.0235 -0.0117,-0.22596 0.0469,-0.44922 0.0408,-0.15577 0.0699,-0.21902 0.0977,-0.28906 0.51717,-0.37214 1.00314,-0.49296 1.53906,-0.47656 0.56181,0.0172 1.17018,0.17222 1.82422,0.27539 a 0.3750375,0.3750375 0 0 0 0.006,0 c 0.35706,0.0518 0.86901,0.035 1.33008,0.0137 0.46106,-0.0213 0.85156,-0.0527 0.85156,-0.0527 a 0.3750375,0.3750375 0 0 0 0.0937,-0.0215 c 0,0 1.05364,-0.37471 1.81836,-0.6289 0.51635,-0.17164 0.99827,-0.36251 1.47461,-0.46485 0.42437,-0.0912 0.91484,-0.0856 1.4414,-0.16992 0.40586,-0.0649 0.84597,-0.11928 1.28907,-0.26172 0.49859,-0.16029 1.25976,-0.5664 1.25976,-0.56641 a 0.3750375,0.3750375 0 0 0 0.0801,-0.0566 z"
             id="path6" />
        </g>
        <g
           id="path996"
           style="stroke-width:1.81789">
          <path
             style="color:#000000;stroke-width:1.81789;stroke-linecap:round;-inkscape-stroke:none"
             d="m 258.6983,365.66378 c 0,0 0.34437,2.35087 0.31165,3.06387 -0.0382,0.83152 -0.52551,2.0461 -0.86915,2.80425 -0.42145,0.92979 -1.11873,2.25616 -1.11873,2.25616"
             id="path7" />
          <path
             style="color:#000000;fill:#000000;stroke-width:1.81789;stroke-linecap:round;-inkscape-stroke:none"
             d="m 258.64453,365.29297 a 0.375,0.375 0 0 0 -0.31641,0.42578 c 0,0 0.0847,0.58244 0.16602,1.25391 0.0813,0.67146 0.15336,1.46081 0.14063,1.73828 -0.0323,0.70219 -0.49944,1.92361 -0.83594,2.66601 -0.4126,0.91028 -1.10938,2.23633 -1.10938,2.23633 a 0.375,0.375 0 0 0 0.15821,0.50586 0.375,0.375 0 0 0 0.50586,-0.15625 c 0,0 0.69861,-1.32608 1.1289,-2.27539 0.35078,-0.7739 0.8582,-1.98251 0.90235,-2.94336 0.02,-0.43554 -0.0638,-1.17911 -0.14649,-1.86133 -0.0827,-0.68222 -0.16797,-1.27344 -0.16797,-1.27344 a 0.375,0.375 0 0 0 -0.42578,-0.3164 z"
             id="path8" />
        </g>
        <g
           id="path998"
           style="stroke-width:1.81789">
          <path
             style="color:#000000;stroke-width:1.81789;stroke-linecap:round;-inkscape-stroke:none"
             d="m 261.31082,365.82183 c 0,0 0.28139,1.7856 0.21798,2.66887 -0.0522,0.72721 -0.61478,2.28549 -0.61478,2.28549"
             id="path9" />
          <path
             style="color:#000000;fill:#000000;stroke-width:1.81789;stroke-linecap:round;-inkscape-stroke:none"
             d="m 261.25195,365.45117 a 0.375,0.375 0 0 0 -0.3125,0.42969 c 0,0 0.27,1.8138 0.21485,2.58203 -0.0206,0.28673 -0.16635,0.86321 -0.31055,1.33398 -0.1442,0.47078 -0.2832,0.85157 -0.2832,0.85157 a 0.375,0.375 0 0 0 0.22656,0.48047 0.375,0.375 0 0 0 0.48047,-0.22461 c 0,0 0.14283,-0.39851 0.29297,-0.88868 0.15014,-0.49016 0.31018,-1.05756 0.34179,-1.49804 0.0717,-0.99831 -0.2207,-2.75391 -0.2207,-2.75391 a 0.375,0.375 0 0 0 -0.42969,-0.3125 z"
             id="path10" />
        </g>
      </g>
      <g
         id="circle10155"
         style="stroke-width:1.81789">
        <path
           style="color:#000000;fill:#ffffff;stroke-width:1.81789;stroke-linecap:round;stroke-linejoin:round;-inkscape-stroke:none"
           d="m 77.397347,139.74613 c -2.076993,0.40886 -4.607168,2.17328 -5.673605,3.27478 -1.066437,1.10151 -2.488805,2.69033 -3.138777,4.87098 0.659243,0.20682 1.345657,0.31411 2.036569,0.31832 3.835446,-1.4e-4 6.944652,-3.10934 6.944794,-6.94479 -2.51e-4,-0.5111 -0.05692,-1.02062 -0.168981,-1.51929 z"
           id="path11" />
        <path
           style="color:#000000;fill:#000000;stroke-width:1.81789;stroke-linecap:round;stroke-linejoin:round;-inkscape-stroke:none"
           d="m 77.369141,139.60742 c -2.131169,0.41953 -4.654455,2.18692 -5.746094,3.31445 -1.069989,1.10518 -2.513119,2.71302 -3.173828,4.92969 a 0.1411256,0.1411256 0 0 0 0.09375,0.17578 c 0.672636,0.21103 1.373175,0.31993 2.078125,0.32422 3.9117,-1.4e-4 7.085792,-3.17423 7.085937,-7.08594 -2.56e-4,-0.52148 -0.05754,-1.04197 -0.171875,-1.55078 a 0.1411256,0.1411256 0 0 0 -0.166015,-0.10742 z m -0.08984,0.33985 c 0.08625,0.43478 0.146266,0.87483 0.146484,1.31835 -1.39e-4,3.75853 -3.04447,6.80152 -6.802734,6.80274 -0.619953,-0.004 -1.232631,-0.11462 -1.828125,-0.28516 0.660969,-2.0581 1.994626,-3.59536 3.029297,-4.66406 1.017463,-1.05091 3.456595,-2.72302 5.455078,-3.17187 z"
           id="path12" />
      </g>
      <path
         style="color:#000000;fill:#000000;stroke-width:1.81789;stroke-linecap:round;stroke-linejoin:round;-inkscape-stroke:none"
         d="m 70.621094,134.14453 c -3.930969,0 -7.121094,3.19013 -7.121094,7.12109 0,3.93097 3.190125,7.1211 7.121094,7.1211 3.930969,0 7.121093,-3.19013 7.121093,-7.1211 0,-3.93096 -3.190124,-7.12109 -7.121093,-7.12109 z m 0,0.35156 c 3.740313,0 6.769531,3.02922 6.769531,6.76953 0,3.74032 -3.029218,6.76758 -6.769531,6.76758 -3.740314,0 -6.767578,-3.02726 -6.767578,-6.76758 0,-3.74031 3.027264,-6.76953 6.767578,-6.76953 z"
         id="circle10250" />
      <path
         style="color:#000000;fill:#000000;stroke-width:1.81789;stroke-linecap:round;stroke-linejoin:round;-inkscape-stroke:none"
         d="m 75.363281,143.26758 c -0.545443,-0.23057 -1.249785,-0.16105 -1.894531,0.17578 -0.159372,0.0832 -0.315914,0.18246 -0.464844,0.29883 -0.254844,0.19911 -0.465436,0.42763 -0.626953,0.66992 a 0.123472,0.123472 0 0 0 0.03516,0.17187 0.123472,0.123472 0 0 0 0.169922,-0.0351 c 0.146317,-0.21949 0.339614,-0.42803 0.574219,-0.61133 0.13711,-0.10713 0.279726,-0.1991 0.425781,-0.27539 0.590949,-0.30873 1.226203,-0.35937 1.683594,-0.16602 a 0.123472,0.123472 0 0 0 0.162109,-0.0664 0.123472,0.123472 0 0 0 -0.06445,-0.16211 z"
         id="path12702" />
      <path
         style="color:#000000;fill:#000000;stroke-width:1.81789;stroke-linecap:round;stroke-linejoin:round;-inkscape-stroke:none"
         d="m 75.943359,144.16016 a 0.123472,0.123472 0 0 0 -0.08594,0.15234 c 0.167868,0.59183 -0.144694,1.39796 -0.865235,1.96094 -0.740874,0.57887 -1.658021,0.69951 -2.226562,0.38476 -0.119109,-0.066 -0.223454,-0.15027 -0.310547,-0.2539 a 0.123472,0.123472 0 0 0 -0.173828,-0.0156 0.123472,0.123472 0 0 0 -0.01563,0.17383 c 0.107309,0.12769 0.23707,0.23287 0.380859,0.3125 0.686626,0.38012 1.693261,0.22256 2.498047,-0.40625 0.7827,-0.61154 1.15597,-1.50258 0.951172,-2.22461 a 0.123472,0.123472 0 0 0 -0.152344,-0.084 z"
         id="path11471" />
      <path
         style="color:#000000;fill:#000000;stroke-width:1.81789;stroke-linecap:round;stroke-linejoin:round;-inkscape-stroke:none"
         d="m 70.621094,134.14453 c -3.930969,0 -7.121094,3.19013 -7.121094,7.12109 0,3.93097 3.190125,7.1211 7.121094,7.1211 3.930969,0 7.121093,-3.19013 7.121093,-7.1211 0,-3.93096 -3.190124,-7.12109 -7.121093,-7.12109 z m 0,0.35156 c 3.740313,0 6.769531,3.02922 6.769531,6.76953 0,3.74032 -3.029218,6.76758 -6.769531,6.76758 -3.740314,0 -6.767578,-3.02726 -6.767578,-6.76758 0,-3.74031 3.027264,-6.76953 6.767578,-6.76953 z"
         id="circle13059" />
      <g
         id="circle13063"
         style="stroke-width:1.81789">
        <path
           style="color:#000000;fill:#e6e6e6;stroke-width:1.81789;stroke-linecap:round;stroke-linejoin:round;-inkscape-stroke:none"
           d="m 74.705522,143.90299 c -0.133346,-1.2e-4 -0.270464,0.0265 -0.405144,0.0589 -0.669682,0.24345 -1.315388,0.78339 -1.51722,1.39061 -0.119651,0.37536 -0.147898,0.68146 0.07958,0.93948 l 1.133263,1.03404 a 6.9450502,6.9450502 0 0 0 2.387452,-2.19263 c -0.417495,-0.35248 -0.844815,-0.72346 -1.195794,-1.05161 -0.145284,-0.13438 -0.310694,-0.17865 -0.482141,-0.1788 z"
           id="path13" />
        <path
           style="color:#000000;fill:#000000;stroke-width:1.81789;stroke-linecap:round;stroke-linejoin:round;-inkscape-stroke:none"
           d="m 74.705078,143.76172 c -0.152213,-1.4e-4 -0.298733,0.0291 -0.4375,0.0625 a 0.1411256,0.1411256 0 0 0 -0.01563,0.006 c -0.705272,0.25639 -1.381167,0.80957 -1.603516,1.47851 a 0.1411256,0.1411256 0 0 0 0,0.002 c -0.06222,0.19519 -0.103212,0.37833 -0.0957,0.56054 0.0075,0.18222 0.07112,0.36173 0.205078,0.51368 a 0.1411256,0.1411256 0 0 0 0.0098,0.0117 l 1.132813,1.03321 a 0.1411256,0.1411256 0 0 0 0.164062,0.0195 c 0.977082,-0.54314 1.811397,-1.3089 2.435547,-2.23633 a 0.1411256,0.1411256 0 0 0 -0.02539,-0.1875 c -0.416468,-0.35161 -0.843409,-0.72151 -1.191406,-1.04687 -0.173137,-0.16015 -0.382466,-0.21663 -0.578125,-0.2168 z m 0,0.2832 c 0.147235,1.3e-4 0.269289,0.032 0.386719,0.14063 0.319041,0.29829 0.703742,0.63183 1.082031,0.95312 -0.572463,0.8175 -1.310253,1.50265 -2.175781,2 l -1.029297,-0.93945 v -0.002 c -0.09248,-0.10552 -0.129468,-0.2074 -0.134766,-0.33594 -0.0053,-0.12866 0.02699,-0.28561 0.08398,-0.46485 0.180662,-0.54353 0.792154,-1.06702 1.423828,-1.29882 0.127646,-0.0304 0.251248,-0.0528 0.363281,-0.0527 z"
           id="path14" />
      </g>
    </g>
    <path
       d="m 84.755967,157.45447 h 0.51263 v 3.85023 h -0.553971 v -2.99585 l -1.185112,1.48828 h -0.101975 l -1.196136,-1.48828 v 2.99585 h -0.551215 v -3.85023 h 0.518142 l 1.281575,1.58198 z m 1.532377,0.24804 q 0.124024,0 0.212218,0.0854 0.08819,0.0854 0.08819,0.20946 0,0.12127 -0.08819,0.20947 -0.08819,0.0882 -0.212218,0.0882 -0.115755,0 -0.203949,-0.0882 -0.08819,-0.091 -0.08819,-0.20947 0,-0.11575 0.08819,-0.20395 0.08819,-0.091 0.203949,-0.091 z m -0.248046,1.0666 h 0.501605 v 2.53559 h -0.501605 z m 1.728058,0 v 0.32247 q 0.336241,-0.37207 0.763433,-0.37207 0.237022,0 0.440972,0.12402 0.203949,0.12127 0.30868,0.33624 0.107487,0.21222 0.107487,0.67524 v 1.44969 h -0.501606 v -1.44418 q 0,-0.38861 -0.118511,-0.55397 -0.118511,-0.16812 -0.396874,-0.16812 -0.355534,0 -0.603581,0.35553 v 1.81074 h -0.512629 v -2.53559 z m 4.012845,-1.31464 h 0.504361 v 3.85023 h -1.072113 q -0.562239,0 -0.89848,-0.35553 -0.333485,-0.35553 -0.333485,-0.9536 0,-0.55949 0.350022,-0.92053 0.352777,-0.36105 0.89848,-0.36105 0.253559,0 0.551215,0.10749 z m 0,3.42029 v -1.6068 q -0.234267,-0.11851 -0.474045,-0.11851 -0.374826,0 -0.598068,0.24529 -0.220486,0.24529 -0.220486,0.66146 0,0.39136 0.192925,0.60358 0.115755,0.12678 0.245291,0.17088 0.129535,0.0441 0.465776,0.0441 z m 2.207615,-1.18512 -0.418923,-0.25356 q -0.394119,-0.23977 -0.562239,-0.47128 -0.165365,-0.23427 -0.165365,-0.53744 0,-0.45475 0.314193,-0.73863 0.316948,-0.28387 0.82131,-0.28387 0.482313,0 0.8847,0.27009 v 0.62563 q -0.416168,-0.39963 -0.895725,-0.39963 -0.270095,0 -0.443728,0.12678 -0.173632,0.12402 -0.173632,0.31971 0,0.17363 0.126779,0.32521 0.12678,0.15159 0.410655,0.31695 l 0.42168,0.24805 q 0.705555,0.41892 0.705555,1.06935 0,0.46302 -0.311437,0.75241 -0.30868,0.28939 -0.804773,0.28939 -0.570508,0 -1.039041,-0.35002 v -0.70004 q 0.446485,0.56499 1.033528,0.56499 0.259071,0 0.429948,-0.14331 0.173633,-0.14608 0.173633,-0.36381 0,-0.35277 -0.507118,-0.66697 z m 3.464385,1.02251 v 0.49609 q -0.377582,0.14056 -0.738628,0.14056 -0.595312,0 -0.950845,-0.35278 -0.352778,-0.35278 -0.352778,-0.94533 0,-0.59807 0.344509,-0.96463 0.34451,-0.36655 0.906749,-0.36655 0.195681,0 0.350021,0.0386 0.157096,0.0358 0.385851,0.1378 v 0.53468 q -0.380339,-0.24253 -0.705555,-0.24253 -0.338998,0 -0.556727,0.23978 -0.21773,0.23702 -0.21773,0.60633 0,0.38861 0.234266,0.61736 0.237022,0.22876 0.636653,0.22876 0.289388,0 0.664214,-0.16812 z m 1.107942,-1.94304 v 0.58154 l 0.02756,-0.0441 q 0.363801,-0.58704 0.727603,-0.58704 0.283876,0 0.592556,0.28663 l -0.264583,0.44097 q -0.261827,-0.24805 -0.485069,-0.24805 -0.242535,0 -0.421679,0.23151 -0.176389,0.23151 -0.176389,0.54846 v 1.32567 H 98.05678 v -2.53559 z m 1.956817,-1.0666 q 0.12402,0 0.21221,0.0854 0.0882,0.0854 0.0882,0.20946 0,0.12127 -0.0882,0.20947 -0.0882,0.0882 -0.21221,0.0882 -0.11576,0 -0.20395,-0.0882 -0.0882,-0.091 -0.0882,-0.20947 0,-0.11575 0.0882,-0.20395 0.0882,-0.091 0.20395,-0.091 z m -0.24805,1.0666 h 0.5016 v 2.53559 h -0.5016 z m 1.19338,3.82819 v -3.82819 h 0.87919 q 0.67524,0 1.05006,0.33625 0.37758,0.33624 0.37758,0.93982 0,0.5705 -0.35553,0.93706 -0.35278,0.36656 -0.90124,0.36656 -0.24253,0 -0.53743,-0.10749 v 1.35599 z m 0.86816,-3.35965 h -0.35553 v 1.55994 q 0.23151,0.11851 0.48507,0.11851 0.35278,0 0.57602,-0.24529 0.226,-0.24529 0.226,-0.63115 0,-0.24804 -0.10749,-0.43821 -0.10473,-0.19017 -0.28939,-0.27561 -0.1819,-0.0882 -0.53468,-0.0882 z m 1.6316,-0.0661 0.94258,-0.92604 v 0.52365 h 0.80201 v 0.452 h -0.80201 v 1.24299 q 0,0.43546 0.36104,0.43546 0.2701,0 0.57051,-0.1819 v 0.46853 q -0.28939,0.16261 -0.63114,0.16261 -0.34451,0 -0.57327,-0.20119 -0.0716,-0.0606 -0.11851,-0.13505 -0.0468,-0.0772 -0.0799,-0.19844 -0.0303,-0.12402 -0.0303,-0.46853 v -1.12448 h -0.44097 z"
       id="text16311-9"
       style="font-size:5.64444px;line-height:1.25;font-family:'Gill Sans MT';-inkscape-font-specification:'Gill Sans MT';letter-spacing:0px;word-spacing:0px;stroke-width:0.264583"
       aria-label="MindScript" />
    <path
       d="m 84.609284,148.46355 h 0.51263 v 3.85023 h -0.553971 v -2.99585 l -1.185112,1.48828 h -0.101974 l -1.196137,-1.48828 v 2.99585 h -0.551215 v -3.85023 h 0.518142 l 1.281575,1.58198 z m 1.532378,0.24804 q 0.124023,0 0.212217,0.0854 0.08819,0.0854 0.08819,0.20946 0,0.12127 -0.08819,0.20946 -0.08819,0.0882 -0.212217,0.0882 -0.115755,0 -0.20395,-0.0882 -0.08819,-0.0909 -0.08819,-0.20946 0,-0.11575 0.08819,-0.20395 0.08819,-0.0909 0.20395,-0.0909 z m -0.248047,1.0666 h 0.501606 v 2.53559 h -0.501606 z m 1.728059,0 v 0.32246 q 0.336241,-0.37207 0.763432,-0.37207 0.237023,0 0.440972,0.12403 0.20395,0.12126 0.30868,0.33624 0.107487,0.21222 0.107487,0.67524 v 1.44969 H 88.74064 v -1.44418 q 0,-0.38861 -0.118511,-0.55397 -0.118512,-0.16812 -0.396875,-0.16812 -0.355534,0 -0.60358,0.35553 v 1.81074 h -0.51263 v -2.53559 z m 4.012844,-1.31464 h 0.504362 v 3.85023 h -1.072113 q -0.562239,0 -0.898481,-0.35553 -0.333485,-0.35554 -0.333485,-0.9536 0,-0.55949 0.350022,-0.92053 0.352777,-0.36105 0.89848,-0.36105 0.253559,0 0.551215,0.10749 z m 0,3.42028 v -1.60679 q -0.234266,-0.11851 -0.474045,-0.11851 -0.374826,0 -0.598068,0.24529 -0.220486,0.24529 -0.220486,0.66146 0,0.39136 0.192925,0.60358 0.115755,0.12678 0.245291,0.17088 0.129535,0.0441 0.465777,0.0441 z m 2.207615,-1.18511 -0.418923,-0.25356 q -0.394119,-0.23978 -0.562239,-0.47129 -0.165365,-0.23426 -0.165365,-0.53743 0,-0.45475 0.314193,-0.73863 0.316948,-0.28387 0.82131,-0.28387 0.482313,0 0.8847,0.27009 v 0.62563 q -0.416167,-0.39963 -0.895724,-0.39963 -0.270096,0 -0.443728,0.12678 -0.173633,0.12402 -0.173633,0.3197 0,0.17364 0.126779,0.32522 0.12678,0.15158 0.410655,0.31695 l 0.42168,0.24805 q 0.705555,0.41892 0.705555,1.06935 0,0.46302 -0.311437,0.75241 -0.30868,0.28939 -0.804773,0.28939 -0.570508,0 -1.03904,-0.35002 v -0.70005 q 0.446484,0.565 1.033528,0.565 0.259071,0 0.429947,-0.14332 0.173633,-0.14607 0.173633,-0.3638 0,-0.35278 -0.507118,-0.66697 z m 3.464385,1.02251 v 0.49609 q -0.377582,0.14056 -0.738628,0.14056 -0.595312,0 -0.950845,-0.35278 -0.352778,-0.35278 -0.352778,-0.94533 0,-0.59807 0.34451,-0.96463 0.344509,-0.36656 0.906748,-0.36656 0.195681,0 0.350021,0.0386 0.157097,0.0358 0.385851,0.1378 v 0.53468 q -0.380338,-0.24253 -0.705555,-0.24253 -0.338997,0 -0.556727,0.23978 -0.21773,0.23702 -0.21773,0.60633 0,0.38861 0.234266,0.61736 0.237023,0.22876 0.636653,0.22876 0.289388,0 0.664214,-0.16812 z m 1.107942,-1.94304 v 0.58154 l 0.02756,-0.0441 q 0.363802,-0.58705 0.727603,-0.58705 0.283876,0 0.592556,0.28664 l -0.264583,0.44097 q -0.261827,-0.24805 -0.485069,-0.24805 -0.242534,0 -0.421679,0.23151 -0.176389,0.23151 -0.176389,0.54846 v 1.32567 h -0.504362 v -2.53559 z m 1.95681,-1.0666 q 0.12403,0 0.21222,0.0854 0.0882,0.0854 0.0882,0.20946 0,0.12127 -0.0882,0.20946 -0.0882,0.0882 -0.21222,0.0882 -0.11575,0 -0.20395,-0.0882 -0.0882,-0.0909 -0.0882,-0.20946 0,-0.11575 0.0882,-0.20395 0.0882,-0.0909 0.20395,-0.0909 z m -0.24804,1.0666 h 0.5016 v 2.53559 h -0.5016 z m 1.19338,3.82819 v -3.82819 h 0.87918 q 0.67524,0 1.05007,0.33624 0.37758,0.33625 0.37758,0.93983 0,0.5705 -0.35553,0.93706 -0.35278,0.36656 -0.90124,0.36656 -0.24253,0 -0.53743,-0.10749 v 1.35599 z m 0.86816,-3.35965 h -0.35553 v 1.55993 q 0.23151,0.11852 0.48507,0.11852 0.35277,0 0.57602,-0.2453 0.22599,-0.24529 0.22599,-0.63114 0,-0.24804 -0.10748,-0.43821 -0.10473,-0.19017 -0.28939,-0.27561 -0.1819,-0.0882 -0.53468,-0.0882 z m 1.6316,-0.0662 0.94257,-0.92604 v 0.52365 h 0.80202 v 0.452 h -0.80202 v 1.24299 q 0,0.43546 0.36105,0.43546 0.27009,0 0.57051,-0.1819 v 0.46853 q -0.28939,0.16261 -0.63114,0.16261 -0.34451,0 -0.57327,-0.20119 -0.0717,-0.0606 -0.11851,-0.13505 -0.0469,-0.0772 -0.0799,-0.19844 -0.0303,-0.12402 -0.0303,-0.46853 v -1.12448 h -0.44097 z"
       id="text16311-9-5"
       style="font-size:5.64444px;line-height:1.25;font-family:'Gill Sans MT';-inkscape-font-specification:'Gill Sans MT';letter-spacing:0px;word-spacing:0px;stroke-width:0.264583"
       aria-label="MindScript" />
    <rect
       style="fill:#453a62;fill-opacity:1;stroke:none;stroke-width:0.282223;stroke-linecap:round;stroke-linejoin:round;stroke-miterlimit:4;stroke-dasharray:none"
       id="rect24901"
       width="6.6145759"
       height="6.6145792"
       x="72.760414"
       y="156.10417"
       ry="0.44097048" />
    <text
       xml:space="preserve"
       style="font-style:normal;font-variant:normal;font-weight:bold;font-stretch:normal;font-size:3.88056px;line-height:1.25;font-family:Arial;-inkscape-font-specification:'Arial Bold';text-align:end;letter-spacing:-0.264583px;word-spacing:0px;text-anchor:end;fill:#ffffff;fill-opacity:1;stroke:none;stroke-width:0.264583"
       x="78.966606"
       y="162.18358"
       id="text16311-8"><tspan
         sodipodi:role="line"
         id="tspan16309-5"
         style="font-style:normal;font-variant:normal;font-weight:bold;font-stretch:normal;font-size:3.88056px;font-family:Arial;-inkscape-font-specification:'Arial Bold';text-align:end;text-anchor:end;fill:#ffffff;fill-opacity:1;stroke:none;stroke-width:0.264583"
         x="78.702026"
         y="162.18358"
         dx="0 -0.35277778">λ<tspan
   style="font-style:normal;font-variant:normal;font-weight:bold;font-stretch:normal;font-size:2.82222px;font-family:Arial;-inkscape-font-specification:'Arial Bold';baseline-shift:super;stroke-width:0.264583"
   id="tspan207603">Ψ</tspan></tspan></text>
    <rect
       style="fill:none;stroke:#000000;stroke-width:0.0352778;stroke-dasharray:none"
       id="rect14"
       width="33.866665"
       height="8.4666557"
       x="72.760414"
       y="137.0542"
       ry="0" />
  </g>
</svg>
