<?xml version="1.0" encoding="UTF-8"?>
<!-- Created with Inkscape (http://www.inkscape.org/) -->
<svg width="34.696mm" height="8.502mm" version="1.1" viewBox="0 0 34.696 8.502" xmlns="http://www.w3.org/2000/svg" xmlns:xlink="http://www.w3.org/1999/xlink">
 <g transform="translate(-71.684 -146.03)">
  <g stroke="#f9f9f9" stroke-width=".35278">
   <use xlink:href="#text16311-9-5"/>
   <use transform="translate(.14668 8.9909)" xlink:href="#text16311-9-5"/>
   <rect x="72.76" y="156.1" width="6.6146" height="6.6146" ry=".44097" fill="none" stroke-linecap="round" stroke-linejoin="round"/>
  </g>
  <path d="m84.756 157.45h0.51263v3.8502h-0.55397v-2.9958l-1.1851 1.4883h-0.10198l-1.1961-1.4883v2.9958h-0.55122v-3.8502h0.51814l1.2816 1.582zm1.5324 0.24804q0.12402 0 0.21222 0.0854 0.08819 0.0854 0.08819 0.20946 0 0.12127-0.08819 0.20947t-0.21222 0.0882q-0.11576 0-0.20395-0.0882-0.08819-0.091-0.08819-0.20947 0-0.11575 0.08819-0.20395 0.08819-0.091 0.20395-0.091zm-0.24805 1.0666h0.5016v2.5356h-0.5016zm1.7281 0v0.32247q0.33624-0.37207 0.76343-0.37207 0.23702 0 0.44097 0.12402 0.20395 0.12127 0.30868 0.33624 0.10749 0.21222 0.10749 0.67524v1.4497h-0.50161v-1.4442q0-0.38861-0.11851-0.55397-0.11851-0.16812-0.39687-0.16812-0.35553 0-0.60358 0.35553v1.8107h-0.51263v-2.5356zm4.0128-1.3146h0.50436v3.8502h-1.0721q-0.56224 0-0.89848-0.35553-0.33348-0.35553-0.33348-0.9536 0-0.55949 0.35002-0.92053 0.35278-0.36105 0.89848-0.36105 0.25356 0 0.55122 0.10749zm0 3.4203v-1.6068q-0.23427-0.11851-0.47404-0.11851-0.37483 0-0.59807 0.24529-0.22049 0.24529-0.22049 0.66146 0 0.39136 0.19292 0.60358 0.11576 0.12678 0.24529 0.17088 0.12954 0.0441 0.46578 0.0441zm2.2076-1.1851-0.41892-0.25356q-0.39412-0.23977-0.56224-0.47128-0.16536-0.23427-0.16536-0.53744 0-0.45475 0.31419-0.73863 0.31695-0.28387 0.82131-0.28387 0.48231 0 0.8847 0.27009v0.62563q-0.41617-0.39963-0.89572-0.39963-0.2701 0-0.44373 0.12678-0.17363 0.12402-0.17363 0.31971 0 0.17363 0.12678 0.32521 0.12678 0.15159 0.41066 0.31695l0.42168 0.24805q0.70556 0.41892 0.70556 1.0694 0 0.46302-0.31144 0.75241-0.30868 0.28939-0.80477 0.28939-0.57051 0-1.039-0.35002v-0.70004q0.44648 0.56499 1.0335 0.56499 0.25907 0 0.42995-0.14331 0.17363-0.14608 0.17363-0.36381 0-0.35277-0.50712-0.66697zm3.4644 1.0225v0.49609q-0.37758 0.14056-0.73863 0.14056-0.59531 0-0.95084-0.35278-0.35278-0.35278-0.35278-0.94533 0-0.59807 0.34451-0.96463 0.34451-0.36655 0.90675-0.36655 0.19568 0 0.35002 0.0386 0.1571 0.0358 0.38585 0.1378v0.53468q-0.38034-0.24253-0.70556-0.24253-0.339 0-0.55673 0.23978-0.21773 0.23702-0.21773 0.60633 0 0.38861 0.23427 0.61736 0.23702 0.22876 0.63665 0.22876 0.28939 0 0.66421-0.16812zm1.1079-1.943v0.58154l0.02756-0.0441q0.3638-0.58704 0.7276-0.58704 0.28388 0 0.59256 0.28663l-0.26458 0.44097q-0.26183-0.24805-0.48507-0.24805-0.24254 0-0.42168 0.23151-0.17639 0.23151-0.17639 0.54846v1.3257h-0.50436v-2.5356zm1.9568-1.0666q0.12402 0 0.21221 0.0854 0.0882 0.0854 0.0882 0.20946 0 0.12127-0.0882 0.20947t-0.21221 0.0882q-0.11576 0-0.20395-0.0882-0.0882-0.091-0.0882-0.20947 0-0.11575 0.0882-0.20395 0.0882-0.091 0.20395-0.091zm-0.24805 1.0666h0.5016v2.5356h-0.5016zm1.1934 3.8282v-3.8282h0.87919q0.67524 0 1.0501 0.33625 0.37758 0.33624 0.37758 0.93982 0 0.5705-0.35553 0.93706-0.35278 0.36656-0.90124 0.36656-0.24253 0-0.53743-0.10749v1.356zm0.86816-3.3596h-0.35553v1.5599q0.23151 0.11851 0.48507 0.11851 0.35278 0 0.57602-0.24529 0.226-0.24529 0.226-0.63115 0-0.24804-0.10749-0.43821-0.10473-0.19017-0.28939-0.27561-0.1819-0.0882-0.53468-0.0882zm1.6316-0.0661 0.94258-0.92604v0.52365h0.80201v0.452h-0.80201v1.243q0 0.43546 0.36104 0.43546 0.2701 0 0.57051-0.1819v0.46853q-0.28939 0.16261-0.63114 0.16261-0.34451 0-0.57327-0.20119-0.0716-0.0606-0.11851-0.13505-0.0468-0.0772-0.0799-0.19844-0.0303-0.12402-0.0303-0.46853v-1.1245h-0.44097z" stroke-width=".26458" aria-label="MindScript"/>
  <rect x="72.76" y="156.1" width="6.6146" height="6.6146" ry=".44097" fill="#453a62"/>
  <text x="78.966606" y="162.18358" fill="#ffffff" font-family="Arial" font-size="3.8806px" font-weight="bold" letter-spacing="-.26458px" stroke-width=".26458" text-align="end" text-anchor="end" word-spacing="0px" style="line-height:1.25" xml:space="preserve"><tspan x="78.702026" y="162.18358" dx="0 -0.35277778" fill="#ffffff" font-family="Arial" font-size="3.8806px" font-weight="bold" stroke-width=".26458" text-align="end" text-anchor="end">λ<tspan baseline-shift="super" font-family="Arial" font-size="2.8222px" font-weight="bold" stroke-width=".26458">Ψ</tspan></tspan></text>
  <rect x="72.496" y="158.49" width="34.66" height="8.4667" ry="0" fill="none" stroke="#000" stroke-width=".035278"/>
  <path id="text16311-9-5" d="m84.609 148.46h0.51263v3.8502h-0.55397v-2.9958l-1.1851 1.4883h-0.10197l-1.1961-1.4883v2.9958h-0.55122v-3.8502h0.51814l1.2816 1.582zm1.5324 0.24804q0.12402 0 0.21222 0.0854 0.08819 0.0854 0.08819 0.20946 0 0.12127-0.08819 0.20946-0.08819 0.0882-0.21222 0.0882-0.11576 0-0.20395-0.0882-0.08819-0.0909-0.08819-0.20946 0-0.11575 0.08819-0.20395 0.08819-0.0909 0.20395-0.0909zm-0.24805 1.0666h0.50161v2.5356h-0.50161zm1.7281 0v0.32246q0.33624-0.37207 0.76343-0.37207 0.23702 0 0.44097 0.12403 0.20395 0.12126 0.30868 0.33624 0.10749 0.21222 0.10749 0.67524v1.4497h-0.5016v-1.4442q0-0.38861-0.11851-0.55397-0.11851-0.16812-0.39688-0.16812-0.35553 0-0.60358 0.35553v1.8107h-0.51263v-2.5356zm4.0128-1.3146h0.50436v3.8502h-1.0721q-0.56224 0-0.89848-0.35553-0.33348-0.35554-0.33348-0.9536 0-0.55949 0.35002-0.92053 0.35278-0.36105 0.89848-0.36105 0.25356 0 0.55122 0.10749zm0 3.4203v-1.6068q-0.23427-0.11851-0.47404-0.11851-0.37483 0-0.59807 0.24529-0.22049 0.24529-0.22049 0.66146 0 0.39136 0.19292 0.60358 0.11576 0.12678 0.24529 0.17088 0.12954 0.0441 0.46578 0.0441zm2.2076-1.1851-0.41892-0.25356q-0.39412-0.23978-0.56224-0.47129-0.16536-0.23426-0.16536-0.53743 0-0.45475 0.31419-0.73863 0.31695-0.28387 0.82131-0.28387 0.48231 0 0.8847 0.27009v0.62563q-0.41617-0.39963-0.89572-0.39963-0.2701 0-0.44373 0.12678-0.17363 0.12402-0.17363 0.3197 0 0.17364 0.12678 0.32522 0.12678 0.15158 0.41066 0.31695l0.42168 0.24805q0.70556 0.41892 0.70556 1.0694 0 0.46302-0.31144 0.75241-0.30868 0.28939-0.80477 0.28939-0.57051 0-1.039-0.35002v-0.70005q0.44648 0.565 1.0335 0.565 0.25907 0 0.42995-0.14332 0.17363-0.14607 0.17363-0.3638 0-0.35278-0.50712-0.66697zm3.4644 1.0225v0.49609q-0.37758 0.14056-0.73863 0.14056-0.59531 0-0.95084-0.35278-0.35278-0.35278-0.35278-0.94533 0-0.59807 0.34451-0.96463 0.34451-0.36656 0.90675-0.36656 0.19568 0 0.35002 0.0386 0.1571 0.0358 0.38585 0.1378v0.53468q-0.38034-0.24253-0.70556-0.24253-0.339 0-0.55673 0.23978-0.21773 0.23702-0.21773 0.60633 0 0.38861 0.23427 0.61736 0.23702 0.22876 0.63665 0.22876 0.28939 0 0.66421-0.16812zm1.1079-1.943v0.58154l0.02756-0.0441q0.3638-0.58705 0.7276-0.58705 0.28388 0 0.59256 0.28664l-0.26458 0.44097q-0.26183-0.24805-0.48507-0.24805-0.24253 0-0.42168 0.23151-0.17639 0.23151-0.17639 0.54846v1.3257h-0.50436v-2.5356zm1.9568-1.0666q0.12403 0 0.21222 0.0854 0.0882 0.0854 0.0882 0.20946 0 0.12127-0.0882 0.20946-0.0882 0.0882-0.21222 0.0882-0.11575 0-0.20395-0.0882-0.0882-0.0909-0.0882-0.20946 0-0.11575 0.0882-0.20395 0.0882-0.0909 0.20395-0.0909zm-0.24804 1.0666h0.5016v2.5356h-0.5016zm1.1934 3.8282v-3.8282h0.87918q0.67524 0 1.0501 0.33624 0.37758 0.33625 0.37758 0.93983 0 0.5705-0.35553 0.93706-0.35278 0.36656-0.90124 0.36656-0.24253 0-0.53743-0.10749v1.356zm0.86816-3.3596h-0.35553v1.5599q0.23151 0.11852 0.48507 0.11852 0.35277 0 0.57602-0.2453 0.22599-0.24529 0.22599-0.63114 0-0.24804-0.10748-0.43821-0.10473-0.19017-0.28939-0.27561-0.1819-0.0882-0.53468-0.0882zm1.6316-0.0662 0.94257-0.92604v0.52365h0.80202v0.452h-0.80202v1.243q0 0.43546 0.36105 0.43546 0.27009 0 0.57051-0.1819v0.46853q-0.28939 0.16261-0.63114 0.16261-0.34451 0-0.57327-0.20119-0.0717-0.0606-0.11851-0.13505-0.0469-0.0772-0.0799-0.19844-0.0303-0.12402-0.0303-0.46853v-1.1245h-0.44097z" stroke-width=".26458" aria-label="MindScript"/>
  <path d="m76.035 146.37c-2.1624 0-3.9172 1.7549-3.9172 3.9172s1.7549 3.9172 3.9172 3.9172c2.1624 0 3.9172-1.7549 3.9172-3.9172s-1.7549-3.9172-3.9172-3.9172zm0 0.19339c2.0575 0 3.7238 1.6663 3.7238 3.7238s-1.6663 3.7228-3.7238 3.7228-3.7228-1.6653-3.7228-3.7228 1.6653-3.7238 3.7228-3.7238z" color="#000000" stroke="#f9f9f9" stroke-linecap="round" stroke-linejoin="round" stroke-width=".35278"/>
  <g stroke-width="0">
   <path d="m79.856 150.28a3.8204 3.8204 0 0 1-3.8204 3.8204 3.8204 3.8204 0 0 1-3.8204-3.8204 3.8204 3.8204 0 0 1 3.8204-3.8204 3.8204 3.8204 0 0 1 3.8204 3.8204z" color="#000000" fill="#453a62"/>
   <g transform="matrix(.55009 0 0 .55009 37.187 72.575)">
    <path d="m67.321 139.76a0.83858 0.83858 0 0 1-0.83858 0.83859 0.83858 0.83858 0 0 1-0.83858-0.83859 0.83858 0.83858 0 0 1 0.83858-0.83858 0.83858 0.83858 0 0 1 0.83858 0.83858z" color="#000000" fill="#fff"/>
    <path d="m66.482 138.8c-0.52987 0-0.96289 0.43303-0.96289 0.9629 0 0.52986 0.43302 0.96093 0.96289 0.96093s0.96094-0.43107 0.96094-0.96093c0-0.52987-0.43107-0.9629-0.96094-0.9629zm0 0.24805c0.39641 0 0.71484 0.31844 0.71484 0.71485 0 0.3964-0.31844 0.71484-0.71484 0.71484s-0.71484-0.31844-0.71484-0.71484c0-0.39641 0.31844-0.71485 0.71484-0.71485z" color="#000000"/>
   </g>
   <g transform="matrix(.19406 0 0 -.19406 26.218 220.01)" fill="#e6e6e6">
    <path d="m258.99 348.94-1.8362 1.6763s-0.78348 0.40745-1.2019 0.54195c-0.39901 0.12827-0.81882 0.18168-1.2327 0.24788-0.48407 0.0775-0.98101 0.0716-1.4603 0.17456-0.51753 0.11119-1.0128 0.30882-1.5151 0.47579-0.77157 0.25647-1.825 0.63138-1.825 0.63138s-1.5319 0.1249-2.0972 0.0429c-1.2592-0.19863-2.4911-0.64853-3.7238 0.29827 0 0-0.36706 0.84634-0.16858 1.197 0.32208 0.56904 1.1748 0.59529 1.8062 0.7653 0.93822 0.25264 1.9515 0.12056 2.8921 0.36425 0.91305 0.23656 2.6259 1.0541 2.6259 1.0541s0.61749 1.287 0.82949 1.9659c0.31346 1.0038 0.52462 2.0435 0.64549 3.0882 0.1151 0.995 0.0937 2.0026 0.0731 3.004-0.0228 1.1081-0.0669 2.2199-0.21778 3.3179-0.15631 1.1377-0.49636 2.2429-0.70983 3.3713v2e-5c-0.0558 0.29508-0.19045 0.591-0.14925 0.88848 0.0388 0.28021 0.15096 0.57954 0.36254 0.76731 0.21117 0.18736 0.52911 0.33526 0.80339 0.26826 0.49148-0.11996 0.77573-0.66888 1.0562-1.0899 0.46709-0.70105 0.70238-1.533 0.99749-2.322 0.36469-0.97504 0.98365-5.2554 0.98365-5.2554s0.28828 3.3415 0.26628 3.8846c-0.0294 0.7274-0.36902 1.4086-0.56977 2.1084-0.14532 0.50656-0.36198 0.99485-0.45938 1.5128-0.10179 0.54165-0.33079 1.1366-0.12679 1.6486 0.132 0.33128 0.46037 0.58972 0.79312 0.71796 0.20956 0.0808 0.46542 0.0839 0.67374 0 0.22433-0.0904 0.52299-0.50289 0.52299-0.50289s0.12944 0.41689 0.2955 0.53483c0.25039 0.17783 0.61247 0.23783 0.90821 0.15503 0.60825-0.17035 1.043-0.7439 1.4306-1.2426 0.6149-0.79124 1.3499-2.6861 1.3499-2.6861s0.23556 0.19381 0.37938 0.21621c0.26258 0.0409 0.56352-0.0112 0.77985-0.16558 0.5096-0.36358 0.72917-1.0309 0.96654-1.6102 0.2631-0.64202 0.45818-1.3301 0.48918-2.0232 0.0411-0.91787-0.25784-1.8195-0.40575-2.7263-0.16429-1.0072-0.51897-1.9942-0.53497-3.0146-0.0166-1.0608 0.45767-3.1496 0.45767-3.1496s0.76599-1.1213 1.2029-1.6396c0.25533-0.30289 0.69584-0.74183 1.2574-1.2669z" color="#000000"/>
    <path d="m258.74 348.67-1.791 1.6348c-0.0467 0.0236-0.78156 0.39657-1.1094 0.50196-0.35493 0.1141-0.75589 0.16689-1.1777 0.23437-0.44157 0.0707-0.94431 0.0649-1.4785 0.17969-0.55872 0.12004-1.0664 0.32403-1.5547 0.48633-0.75758 0.25182-1.7292 0.59602-1.7832 0.61523-0.0381 3e-3 -0.35548 0.0293-0.77735 0.0488-0.44621 0.0206-0.98116 0.0243-1.1894-6e-3l4e-3 2e-3c-0.60514-0.0954-1.2408-0.26443-1.918-0.28515-0.67714-0.0207-1.4048 0.12861-2.0918 0.65625a0.37504 0.37504 0 0 0-0.11719 0.14844s-0.10039 0.23195-0.17578 0.51953c-0.0754 0.28757-0.18636 0.63564 0.0254 1.0098 0.2297 0.40583 0.63285 0.59599 1.0059 0.70703 0.37301 0.11105 0.74986 0.16109 1.0293 0.23633 1.0354 0.2788 2.051 0.1462 2.8965 0.36524 0.78082 0.2023 2.2805 0.90887 2.4336 0.98046 0.0721 0.15298 0.57996 1.2195 0.75781 1.7891 0.30578 0.97924 0.51246 1.9962 0.63086 3.0195 0.11117 0.96102 0.0909 1.9515 0.0703 2.9531-0.0227 1.1033-0.0673 2.1995-0.21484 3.2734-0.15079 1.0975-0.48836 2.1976-0.70703 3.3535-0.0438 0.23183-0.21342 0.56883-0.15235 1.0098 0.0473 0.34153 0.17598 0.72067 0.48633 0.9961 0.27766 0.24635 0.67787 0.4646 1.1406 0.35156 0.71512-0.17455 1.0174-0.85296 1.2793-1.2461 0.51078-0.76661 0.74939-1.6292 1.0371-2.3984 0.16804-0.44928 0.33179-1.4231 0.49219-2.3281 2.5e-4 4e-3 -2.5e-4 0.01 0 0.0137 0.0237 0.38633 0.0348 0.70974 0.0312 0.79688-0.0251 0.6204-0.34081 1.274-0.55469 2.0195-0.13569 0.47299-0.36059 0.97175-0.46875 1.5469-0.0921 0.49029-0.38216 1.163-0.10547 1.8574 0.18634 0.46764 0.59261 0.77042 1.0059 0.92968 0.30216 0.11651 0.63923 0.1229 0.94922-2e-3 0.14937-0.0602 0.21286-0.15174 0.29883-0.23633 0.0486 0.0769 0.0577 0.15046 0.16211 0.22461 0.35707 0.2536 0.80901 0.32785 1.2266 0.21094 0.77405-0.21679 1.2395-0.877 1.625-1.373 0.35203-0.45298 0.68579-1.1317 0.95117-1.7148 0.16817-0.36951 0.20945-0.48412 0.28711-0.67578 0.0493 0.0201 0.0658 0.0495 0.13672 0.0605 0.35349 0.0551 0.73893-4e-3 1.0566-0.23047 0.64476-0.46001 0.86589-1.2126 1.0957-1.7734 0.27409-0.66883 0.48199-1.3962 0.51563-2.1484 0.0452-1.01-0.26881-1.9362-0.41016-2.8027-0.17183-1.0535-0.5146-2.0236-0.52929-2.9609-0.0144-0.9215 0.42075-2.9101 0.43945-2.9961 0.0577-0.0839 0.74466-1.0845 1.1328-1.5449 0.23341-0.27688 0.66965-0.71561 1.2266-1.2363a0.37504 0.37504 0 0 0 2e-3 -0.54688l-6.6152-6.2227a0.37504 0.37504 0 0 0-0.50976-4e-3zm0.25 0.78711 6.0801 5.7226c-0.39955 0.38288-0.79104 0.75847-1.0078 1.0156-0.46945 0.55691-1.2246 1.6699-1.2246 1.6699a0.37504 0.37504 0 0 0-0.0566 0.12891s-0.48526 2.0581-0.46679 3.2383c0.0173 1.1035 0.38231 2.1073 0.53906 3.0684 0.15447 0.94705 0.43932 1.8247 0.40234 2.6504-0.0284 0.63405-0.21077 1.2813-0.46289 1.8965-0.24492 0.59769-0.46149 1.1801-0.83594 1.4473-0.11494 0.082-0.33223 0.1283-0.5039 0.10156 0.0598 9e-3 -0.0341-0.0188-0.0937-0.0586-0.0597-0.0398-0.10547-0.0781-0.10547-0.0781a0.37504 0.37504 0 0 0-0.58789 0.1543s-0.18166 0.4652-0.4375 1.0273-0.5965 1.2262-0.85938 1.5645c-0.3897 0.50145-0.79388 0.98741-1.2363 1.1113-0.17393 0.0487-0.44614 2e-3 -0.58985-0.0996 0.0495 0.0352-0.041-0.0619-0.084-0.1582s-0.0703-0.18164-0.0703-0.18164a0.37504 0.37504 0 0 0-0.66211-0.10937s-0.0641 0.0892-0.15235 0.1875c-0.0882 0.0983-0.22476 0.19464-0.20703 0.1875-0.10665 0.0429-0.28147 0.0431-0.39844-2e-3 -0.25224-0.0972-0.50241-0.31094-0.58007-0.50586-0.13131-0.32955 0.037-0.8484 0.14843-1.4414 0.0867-0.46074 0.29623-0.93839 0.45117-1.4785 0.18763-0.65401 0.55026-1.3609 0.58399-2.1953 7e-3 -0.18441-9e-3 -0.48205-0.0332-0.875-0.0241-0.39295-0.059-0.86368-0.0937-1.3164-0.0695-0.90545-0.14063-1.7422-0.14063-1.7422a0.37504 0.37504 0 0 0-0.74414-0.0215s-0.15599 1.067-0.35547 2.2539c-0.19948 1.1869-0.46572 2.5398-0.60937 2.9238-0.3025 0.80876-0.53558 1.6106-0.95899 2.2461-0.29909 0.4489-0.5642 0.86822-0.83203 0.93359-0.0858 0.021-0.32212-0.0552-0.4668-0.18359-0.1128-0.10011-0.20797-0.32017-0.23828-0.53906-0.0213-0.15403 0.0787-0.40925 0.14649-0.76758 0.20826-1.1008 0.5491-2.2127 0.71093-3.3906 0.15419-1.1221 0.19976-2.2465 0.22266-3.3594 0.0206-1.0012 0.0429-2.0277-0.0762-3.0566-0.12334-1.066-0.33902-2.1278-0.66016-3.1562-0.23356-0.74796-0.84961-2.0156-0.84961-2.0156a0.37504 0.37504 0 0 0-0.17578-0.17578s-1.6875-0.81946-2.6934-1.0801c-1.0357-0.26834-2.0476-0.1368-2.8887-0.36328-0.35194-0.0948-0.71806-0.14363-1.0098-0.23047-0.2917-0.0868-0.47598-0.1942-0.56836-0.35742 0.0133 0.0235-0.0117-0.22596 0.0469-0.44922 0.0408-0.15577 0.0699-0.21902 0.0977-0.28906 0.51717-0.37214 1.0031-0.49296 1.5391-0.47656 0.56181 0.0172 1.1702 0.17222 1.8242 0.27539a0.37504 0.37504 0 0 0 6e-3 0c0.35706 0.0518 0.86901 0.035 1.3301 0.0137 0.46106-0.0213 0.85156-0.0527 0.85156-0.0527a0.37504 0.37504 0 0 0 0.0937-0.0215s1.0536-0.37471 1.8184-0.6289c0.51635-0.17164 0.99827-0.36251 1.4746-0.46485 0.42437-0.0912 0.91484-0.0856 1.4414-0.16992 0.40586-0.0649 0.84597-0.11928 1.2891-0.26172 0.49859-0.16029 1.2598-0.5664 1.2598-0.56641a0.37504 0.37504 0 0 0 0.0801-0.0566z" color="#000000" fill="#000"/>
    <path d="m258.7 365.66s0.34437 2.3509 0.31165 3.0639c-0.0382 0.83152-0.52551 2.0461-0.86915 2.8042-0.42145 0.92979-1.1187 2.2562-1.1187 2.2562" color="#000000"/>
    <path d="m258.64 365.29a0.375 0.375 0 0 0-0.31641 0.42578s0.0847 0.58244 0.16602 1.2539c0.0813 0.67146 0.15336 1.4608 0.14063 1.7383-0.0323 0.70219-0.49944 1.9236-0.83594 2.666-0.4126 0.91028-1.1094 2.2363-1.1094 2.2363a0.375 0.375 0 0 0 0.15821 0.50586 0.375 0.375 0 0 0 0.50586-0.15625s0.69861-1.3261 1.1289-2.2754c0.35078-0.7739 0.8582-1.9825 0.90235-2.9434 0.02-0.43554-0.0638-1.1791-0.14649-1.8613-0.0827-0.68222-0.16797-1.2734-0.16797-1.2734a0.375 0.375 0 0 0-0.42578-0.3164z" color="#000000" fill="#000"/>
    <path d="m261.31 365.82s0.28139 1.7856 0.21798 2.6689c-0.0522 0.72721-0.61478 2.2855-0.61478 2.2855" color="#000000"/>
    <path d="m261.25 365.45a0.375 0.375 0 0 0-0.3125 0.42969s0.27 1.8138 0.21485 2.582c-0.0206 0.28673-0.16635 0.86321-0.31055 1.334-0.1442 0.47078-0.2832 0.85157-0.2832 0.85157a0.375 0.375 0 0 0 0.22656 0.48047 0.375 0.375 0 0 0 0.48047-0.22461s0.14283-0.39851 0.29297-0.88868c0.15014-0.49016 0.31018-1.0576 0.34179-1.498 0.0717-0.99831-0.2207-2.7539-0.2207-2.7539a0.375 0.375 0 0 0-0.42969-0.3125z" color="#000000" fill="#000"/>
   </g>
   <g transform="matrix(.55009 0 0 .55009 37.187 72.575)">
    <path d="m77.397 139.75c-2.077 0.40886-4.6072 2.1733-5.6736 3.2748-1.0664 1.1015-2.4888 2.6903-3.1388 4.871 0.65924 0.20682 1.3457 0.31411 2.0366 0.31832 3.8354-1.4e-4 6.9447-3.1093 6.9448-6.9448-2.51e-4 -0.5111-0.05692-1.0206-0.16898-1.5193z" color="#000000" fill="#fff"/>
    <path d="m77.369 139.61c-2.1312 0.41953-4.6545 2.1869-5.7461 3.3144-1.07 1.1052-2.5131 2.713-3.1738 4.9297a0.14113 0.14113 0 0 0 0.09375 0.17578c0.67264 0.21103 1.3732 0.31993 2.0781 0.32422 3.9117-1.4e-4 7.0858-3.1742 7.0859-7.0859-2.56e-4 -0.52148-0.05754-1.042-0.17188-1.5508a0.14113 0.14113 0 0 0-0.16602-0.10742zm-0.08984 0.33985c0.08625 0.43478 0.14627 0.87483 0.14648 1.3184-1.39e-4 3.7585-3.0445 6.8015-6.8027 6.8027-0.61995-4e-3 -1.2326-0.11462-1.8281-0.28516 0.66097-2.0581 1.9946-3.5954 3.0293-4.6641 1.0175-1.0509 3.4566-2.723 5.4551-3.1719z" color="#000000"/>
   </g>
   <g>
    <path d="m76.035 146.37c-2.1624 0-3.9172 1.7549-3.9172 3.9172s1.7549 3.9172 3.9172 3.9172c2.1624 0 3.9172-1.7549 3.9172-3.9172s-1.7549-3.9172-3.9172-3.9172zm0 0.19339c2.0575 0 3.7238 1.6663 3.7238 3.7238s-1.6663 3.7228-3.7238 3.7228-3.7228-1.6653-3.7228-3.7228 1.6653-3.7238 3.7228-3.7238z" color="#000000"/>
    <path d="m78.644 151.38c-0.30004-0.12684-0.68749-0.0886-1.0422 0.0967-0.08767 0.0458-0.17378 0.10037-0.25571 0.16438-0.14019 0.10953-0.25603 0.23524-0.34488 0.36852a0.067921 0.067921 0 0 0 0.01934 0.0945 0.067921 0.067921 0 0 0 0.09347-0.0193c0.08049-0.12073 0.18682-0.23545 0.31587-0.33628 0.07542-0.0589 0.15388-0.10952 0.23422-0.15149 0.32507-0.16983 0.67452-0.19769 0.92613-0.0913a0.067921 0.067921 0 0 0 0.08917-0.0365 0.067921 0.067921 0 0 0-0.03545-0.0892z" color="#000000"/>
    <path d="m78.963 151.88a0.067921 0.067921 0 0 0-0.04727 0.0838c0.09234 0.32556-0.0796 0.76901-0.47596 1.0787-0.40755 0.31843-0.91206 0.38479-1.2248 0.21165-0.06552-0.0363-0.12292-0.0827-0.17083-0.13967a0.067921 0.067921 0 0 0-0.09562-9e-3 0.067921 0.067921 0 0 0-0.0086 0.0956c0.05903 0.0702 0.13041 0.1281 0.20951 0.1719 0.37771 0.2091 0.93144 0.12243 1.3741-0.22347 0.43055-0.3364 0.63589-0.82655 0.52323-1.2237a0.067921 0.067921 0 0 0-0.0838-0.0462z" color="#000000"/>
   </g>
   <g transform="matrix(.55009 0 0 .55009 37.187 72.575)">
    <path d="m74.706 143.9c-0.13335-1.2e-4 -0.27046 0.0265-0.40514 0.0589-0.66968 0.24345-1.3154 0.78339-1.5172 1.3906-0.11965 0.37536-0.1479 0.68146 0.07958 0.93948l1.1333 1.034a6.9451 6.9451 0 0 0 2.3875-2.1926c-0.4175-0.35248-0.84482-0.72346-1.1958-1.0516-0.14528-0.13438-0.31069-0.17865-0.48214-0.1788z" color="#000000" fill="#e6e6e6"/>
    <path d="m74.705 143.76c-0.15221-1.4e-4 -0.29873 0.0291-0.4375 0.0625a0.14113 0.14113 0 0 0-0.01563 6e-3c-0.70527 0.25639-1.3812 0.80957-1.6035 1.4785a0.14113 0.14113 0 0 0 0 2e-3c-0.06222 0.19519-0.10321 0.37833-0.0957 0.56054 0.0075 0.18222 0.07112 0.36173 0.20508 0.51368a0.14113 0.14113 0 0 0 0.0098 0.0117l1.1328 1.0332a0.14113 0.14113 0 0 0 0.16406 0.0195c0.97708-0.54314 1.8114-1.3089 2.4355-2.2363a0.14113 0.14113 0 0 0-0.02539-0.1875c-0.41647-0.35161-0.84341-0.72151-1.1914-1.0469-0.17314-0.16015-0.38247-0.21663-0.57812-0.2168zm0 0.2832c0.14724 1.3e-4 0.26929 0.032 0.38672 0.14063 0.31904 0.29829 0.70374 0.63183 1.082 0.95312-0.57246 0.8175-1.3103 1.5026-2.1758 2l-1.0293-0.93945v-2e-3c-0.09248-0.10552-0.12947-0.2074-0.13477-0.33594-0.0053-0.12866 0.02699-0.28561 0.08398-0.46485 0.18066-0.54353 0.79215-1.067 1.4238-1.2988 0.12765-0.0304 0.25125-0.0528 0.36328-0.0527z" color="#000000"/>
   </g>
  </g>
 </g>
</svg>
