<?xml version="1.0" encoding="UTF-8" standalone="no"?>
<!-- Created with Inkscape (http://www.inkscape.org/) -->

<svg
   width="33.602081mm"
   height="7.1437554mm"
   viewBox="0 0 33.602081 7.1437554"
   version="1.1"
   id="svg248103"
   inkscape:version="1.1.2 (0a00cf5339, 2022-02-04)"
   sodipodi:docname="mindscript-logo.svg"
   xmlns:inkscape="http://www.inkscape.org/namespaces/inkscape"
   xmlns:sodipodi="http://sodipodi.sourceforge.net/DTD/sodipodi-0.dtd"
   xmlns="http://www.w3.org/2000/svg"
   xmlns:svg="http://www.w3.org/2000/svg">
  <sodipodi:namedview
     id="namedview248105"
     pagecolor="#ffffff"
     bordercolor="#666666"
     borderopacity="1.0"
     inkscape:pageshadow="2"
     inkscape:pageopacity="0.0"
     inkscape:pagecheckerboard="0"
     inkscape:document-units="mm"
     showgrid="true"
     fit-margin-top="0"
     fit-margin-left="0"
     fit-margin-right="0"
     fit-margin-bottom="0"
     inkscape:zoom="10.248373"
     inkscape:cx="62.790457"
     inkscape:cy="18.490741"
     inkscape:window-width="2560"
     inkscape:window-height="1376"
     inkscape:window-x="0"
     inkscape:window-y="0"
     inkscape:window-maximized="1"
     inkscape:current-layer="layer1">
    <inkscape:grid
       type="xygrid"
       id="grid248197"
       dotted="true"
       units="px"
       spacingx="0.26458333"
       spacingy="0.26458333"
       originx="-15.610415"
       originy="-130.70416" />
  </sodipodi:namedview>
  <defs
     id="defs248100" />
  <g
     inkscape:label="Layer 1"
     inkscape:groupmode="layer"
     id="layer1"
     transform="translate(-15.610415,-130.70416)">
    <g
       id="g248586">
      <path
         d="m 27.870551,132.31905 h 0.51263 v 3.85023 H 27.82921 v -2.99585 l -1.185112,1.48828 h -0.101975 l -1.196136,-1.48828 v 2.99585 h -0.551215 v -3.85023 h 0.518142 l 1.281575,1.58198 z"
         id="path248428"
         style="font-size:5.64444px;line-height:1.25;font-family:'Gill Sans MT';-inkscape-font-specification:'Gill Sans MT';letter-spacing:0px;word-spacing:0px;stroke-width:0.264583" />
      <path
         d="m 29.402928,132.56709 q 0.124024,0 0.212218,0.0854 0.0882,0.0854 0.0882,0.20946 0,0.12127 -0.0882,0.20946 -0.08819,0.0882 -0.212218,0.0882 -0.115755,0 -0.203949,-0.0882 -0.08819,-0.0909 -0.08819,-0.20946 0,-0.11575 0.08819,-0.20395 0.08819,-0.0909 0.203949,-0.0909 z m -0.248046,1.0666 h 0.501605 v 2.53559 h -0.501605 z"
         id="path248430"
         style="font-size:5.64444px;line-height:1.25;font-family:'Gill Sans MT';-inkscape-font-specification:'Gill Sans MT';letter-spacing:0px;word-spacing:0px;stroke-width:0.264583" />
      <path
         d="m 30.88294,133.63369 v 0.32246 q 0.336241,-0.37207 0.763433,-0.37207 0.237022,0 0.440972,0.12403 0.203949,0.12126 0.30868,0.33624 0.107487,0.21222 0.107487,0.67524 v 1.44969 h -0.501606 v -1.44418 q 0,-0.38861 -0.118511,-0.55397 -0.118511,-0.16812 -0.396874,-0.16812 -0.355534,0 -0.603581,0.35553 v 1.81074 h -0.51263 v -2.53559 z"
         id="path248432"
         style="font-size:5.64444px;line-height:1.25;font-family:'Gill Sans MT';-inkscape-font-specification:'Gill Sans MT';letter-spacing:0px;word-spacing:0px;stroke-width:0.264583" />
      <path
         d="m 34.895785,132.31905 h 0.504361 v 3.85023 h -1.072113 q -0.562239,0 -0.89848,-0.35553 -0.333485,-0.35554 -0.333485,-0.9536 0,-0.55949 0.350022,-0.92053 0.352777,-0.36105 0.89848,-0.36105 0.253559,0 0.551215,0.10749 z m 0,3.42028 v -1.60679 q -0.234267,-0.11851 -0.474045,-0.11851 -0.374826,0 -0.598068,0.24529 -0.220486,0.24529 -0.220486,0.66146 0,0.39136 0.192925,0.60358 0.115755,0.12678 0.245291,0.17088 0.129535,0.0441 0.465776,0.0441 z"
         id="path248434"
         style="font-size:5.64444px;line-height:1.25;font-family:'Gill Sans MT';-inkscape-font-specification:'Gill Sans MT';letter-spacing:0px;word-spacing:0px;stroke-width:0.264583" />
      <path
         d="m 37.1034,134.55422 -0.418923,-0.25356 q -0.394119,-0.23978 -0.56224,-0.47129 -0.165364,-0.23426 -0.165364,-0.53743 0,-0.45475 0.314192,-0.73863 0.316949,-0.28387 0.821311,-0.28387 0.482313,0 0.884699,0.27009 v 0.62563 q -0.416167,-0.39963 -0.895724,-0.39963 -0.270095,0 -0.443728,0.12678 -0.173632,0.12402 -0.173632,0.3197 0,0.17364 0.126779,0.32522 0.12678,0.15158 0.410655,0.31695 l 0.42168,0.24805 q 0.705555,0.41892 0.705555,1.06935 0,0.46302 -0.311437,0.75241 -0.30868,0.28939 -0.804774,0.28939 -0.570507,0 -1.03904,-0.35002 v -0.70005 q 0.446485,0.565 1.033528,0.565 0.259071,0 0.429948,-0.14332 0.173633,-0.14607 0.173633,-0.3638 0,-0.35278 -0.507118,-0.66697 z"
         id="path248436"
         style="font-size:5.64444px;line-height:1.25;font-family:'Gill Sans MT';-inkscape-font-specification:'Gill Sans MT';letter-spacing:0px;word-spacing:0px;stroke-width:0.264583" />
      <path
         d="m 40.567785,135.57673 v 0.49609 q -0.377582,0.14056 -0.738628,0.14056 -0.595312,0 -0.950845,-0.35278 -0.352778,-0.35278 -0.352778,-0.94533 0,-0.59807 0.344509,-0.96463 0.34451,-0.36656 0.906749,-0.36656 0.195681,0 0.350021,0.0386 0.157096,0.0358 0.385851,0.1378 v 0.53468 q -0.380339,-0.24253 -0.705555,-0.24253 -0.338998,0 -0.556727,0.23977 -0.21773,0.23703 -0.21773,0.60634 0,0.38861 0.234266,0.61736 0.237022,0.22876 0.636653,0.22876 0.289388,0 0.664214,-0.16812 z"
         id="path248438"
         style="font-size:5.64444px;line-height:1.25;font-family:'Gill Sans MT';-inkscape-font-specification:'Gill Sans MT';letter-spacing:0px;word-spacing:0px;stroke-width:0.264583" />
      <path
         d="m 41.675727,133.63369 v 0.58153 l 0.02756,-0.0441 q 0.363801,-0.58705 0.727603,-0.58705 0.283876,0 0.592556,0.28664 l -0.264583,0.44097 q -0.261827,-0.24805 -0.485069,-0.24805 -0.242535,0 -0.421679,0.23151 -0.176389,0.23151 -0.176389,0.54846 v 1.32567 h -0.504362 v -2.53559 z"
         id="path248440"
         style="font-size:5.64444px;line-height:1.25;font-family:'Gill Sans MT';-inkscape-font-specification:'Gill Sans MT';letter-spacing:0px;word-spacing:0px;stroke-width:0.264583" />
      <path
         d="m 43.632539,132.56709 q 0.124024,0 0.212218,0.0854 0.08819,0.0854 0.08819,0.20946 0,0.12127 -0.08819,0.20946 -0.08819,0.0882 -0.212218,0.0882 -0.115755,0 -0.203949,-0.0882 -0.08819,-0.0909 -0.08819,-0.20946 0,-0.11575 0.08819,-0.20395 0.08819,-0.0909 0.203949,-0.0909 z m -0.248046,1.0666 h 0.501605 v 2.53559 h -0.501605 z"
         id="path248442"
         style="font-size:5.64444px;line-height:1.25;font-family:'Gill Sans MT';-inkscape-font-specification:'Gill Sans MT';letter-spacing:0px;word-spacing:0px;stroke-width:0.264583" />
      <path
         d="m 44.577874,137.46188 v -3.82819 h 0.879187 q 0.675239,0 1.050065,0.33624 0.377582,0.33624 0.377582,0.93983 0,0.5705 -0.355534,0.93706 -0.352777,0.36656 -0.901236,0.36656 -0.242534,0 -0.537434,-0.10749 v 1.35599 z m 0.868163,-3.35965 h -0.355533 v 1.55993 q 0.23151,0.11851 0.485069,0.11851 0.352777,0 0.576019,-0.24529 0.225998,-0.24529 0.225998,-0.63114 0,-0.24804 -0.107487,-0.43821 -0.10473,-0.19017 -0.289387,-0.27561 -0.181901,-0.0882 -0.534679,-0.0882 z"
         id="path248444"
         style="font-size:5.64444px;line-height:1.25;font-family:'Gill Sans MT';-inkscape-font-specification:'Gill Sans MT';letter-spacing:0px;word-spacing:0px;stroke-width:0.264583" />
      <path
         d="m 47.077633,134.03608 0.942577,-0.92604 v 0.52365 h 0.802018 v 0.452 H 48.02021 v 1.24299 q 0,0.43546 0.361046,0.43546 0.270095,0 0.570507,-0.1819 v 0.46853 q -0.289387,0.16261 -0.631141,0.16261 -0.344509,0 -0.573263,-0.2012 -0.07166,-0.0606 -0.118511,-0.13504 -0.04685,-0.0772 -0.07993,-0.19844 -0.03032,-0.12402 -0.03032,-0.46853 v -1.12448 h -0.440972 z"
         id="path248446"
         style="font-size:5.64444px;line-height:1.25;font-family:'Gill Sans MT';-inkscape-font-specification:'Gill Sans MT';letter-spacing:0px;word-spacing:0px;stroke-width:0.264583" />
    </g>
    <rect
       style="fill:#453a62;fill-opacity:1;stroke:none;stroke-width:0.282223;stroke-linecap:round;stroke-linejoin:round;stroke-miterlimit:4;stroke-dasharray:none"
       id="rect24901"
       width="6.6145759"
       height="6.6145792"
       x="15.875"
       y="130.96875"
       ry="0.44097048" />
    <g
       aria-label="λΨ"
       id="text16311-8"
       style="font-weight:bold;font-size:3.88056px;line-height:1.25;font-family:Arial;-inkscape-font-specification:'Arial Bold';text-align:end;letter-spacing:-0.264583px;word-spacing:0px;text-anchor:end;fill:#ffffff;stroke-width:0.264583">
      <path
         d="m 20.375352,137.04816 h -0.549493 l -0.346749,-0.9133 q -0.06632,-0.17053 -0.153479,-0.45475 -0.0739,0.24253 -0.14969,0.44528 l -0.344854,0.92277 h -0.545704 l 0.77308,-2.01039 -0.293695,-0.7674 h 0.524861 l 0.301274,0.7674 z"
         id="path249877" />
      <path
         d="m 19.916294,133.47573 h 0.407899 v 0.47267 q 0,0.35415 0.08957,0.48231 0.08957,0.12816 0.322461,0.13091 v -1.08589 h 0.406521 v 1.08589 q 0.158474,-0.003 0.24529,-0.0551 0.08819,-0.0537 0.128158,-0.17914 0.03996,-0.12678 0.03996,-0.37896 v -0.47267 h 0.406521 v 0.54019 q 0,0.31282 -0.0689,0.48645 -0.0689,0.17363 -0.243913,0.28525 -0.17501,0.11024 -0.507117,0.11989 v 0.58842 h -0.406521 v -0.58842 q -0.316949,-0.01 -0.496094,-0.11438 -0.177766,-0.1061 -0.250802,-0.28112 -0.07304,-0.17501 -0.07304,-0.49609 z"
         style="font-size:2.82222px;baseline-shift:super"
         id="path249879" />
    </g>
  </g>
</svg>
